<svg xmlns="http://www.w3.org/2000/svg" viewBox="0 0 512 512">
  <rect width="512" height="512" rx="72" ry="72" fill="#1a5c2c"/>
  <circle cx="190" cy="264" r="162" fill="white"/>
  <circle cx="276" cy="250" r="138" fill="#1a5c2c"/>

  <!-- Left palm trunk -->
  <path d="M 276 462 C 268 408 258 356 250 308 C 244 280 248 268 255 258 L 255 294"
        stroke="white" stroke-width="20" fill="none" stroke-linecap="round" stroke-linejoin="round"/>
  <path d="M 255,294 C 224,276 168,271 137,304 C 171,313 226,305 255,294 Z" fill="white"/>
  <path d="M 255,294 C 240,262 197,230 155,242 C 177,267 226,289 255,294 Z" fill="white"/>
  <path d="M 255,294 C 264,263 255,214 219,196 C 219,227 238,272 255,294 Z" fill="white"/>
  <path d="M 255,294 C 274,268 282,218 257,188 C 246,217 248,267 255,294 Z" fill="white"/>
  <path d="M 255,294 C 251,264 266,218 301,204 C 297,234 273,275 255,294 Z" fill="white"/>
  <path d="M 255,294 C 228,294 191,313 185,346 C 210,339 242,313 255,294 Z" fill="white"/>

  <!-- Right palm trunk -->
  <path d="M 344 462 C 352 408 362 356 370 308 C 376 280 372 268 365 258 L 365 294"
        stroke="white" stroke-width="20" fill="none" stroke-linecap="round" stroke-linejoin="round"/>
  <path d="M 365,294 C 396,276 452,271 483,304 C 449,313 394,305 365,294 Z" fill="white"/>
  <path d="M 365,294 C 380,262 423,230 465,242 C 443,267 394,289 365,294 Z" fill="white"/>
  <path d="M 365,294 C 356,263 365,214 401,196 C 401,227 382,272 365,294 Z" fill="white"/>
  <path d="M 365,294 C 383,267 390,217 363,188 C 353,218 357,268 365,294 Z" fill="white"/>
  <path d="M 365,294 C 369,264 354,218 319,204 C 323,234 347,275 365,294 Z" fill="white"/>
  <path d="M 365,294 C 392,294 429,313 435,346 C 410,339 378,313 365,294 Z" fill="white"/>

  <!-- Minaret tower -->
  <rect x="299" y="256" width="22" height="207" rx="3" fill="white"/>
  <!-- Dome base -->
  <rect x="283" y="238" width="54" height="21" rx="4" fill="white"/>
  <!-- Onion dome -->
  <path d="M 283 246 C 259 240 250 210 261 192 C 272 174 292 157 310 153
           C 328 157 348 174 359 192 C 370 210 361 240 337 246 Z" fill="white"/>
  <!-- Spire -->
  <rect x="307" y="127" width="6" height="28" rx="2" fill="white"/>
  <polygon points="305,131 315,131 310,110" fill="white"/>
</svg>